<svg class="pattern-type1" width="411" height="221" viewBox="0 0 411 221" fill="none" xmlns="http://www.w3.org/2000/svg">
    <g clip-path="url(#clip0_1077_17572)">
        <path d="M245.352 210.993C245.352 207.584 248.13 204.82 251.556 204.82C254.982 204.82 257.759 207.584 257.759 210.993C257.759 214.402 254.982 217.165 251.556 217.165C248.13 217.165 245.352 214.402 245.352 210.993Z" fill="#FAB008" class="svg-elem-7"></path>
        <path d="M220.852 210.993C220.852 207.857 223.406 205.315 226.558 205.315C229.709 205.315 232.263 207.857 232.263 210.993C232.263 214.129 229.709 216.67 226.558 216.67C223.406 216.67 220.852 214.129 220.852 210.993Z" fill="#FAB008" class="svg-elem-8"></path>
        <path d="M147.354 210.993C147.354 208.676 149.241 206.795 151.572 206.795C153.903 206.795 155.791 208.673 155.791 210.993C155.791 213.312 153.901 215.19 151.572 215.19C149.244 215.19 147.354 213.312 147.354 210.993Z" fill="#FAB008" class="svg-elem-11"></path>
        <path d="M122.854 210.993C122.854 208.947 124.52 207.291 126.574 207.291C128.629 207.291 130.295 208.949 130.295 210.993C130.295 213.037 128.629 214.695 126.574 214.695C124.52 214.695 122.854 213.037 122.854 210.993Z" fill="#FAB008" class="svg-elem-12"></path>
        <path d="M98.3561 210.993C98.3561 209.219 99.7999 207.783 101.582 207.783C103.364 207.783 104.808 209.219 104.808 210.993C104.808 212.766 103.364 214.203 101.582 214.203C99.7999 214.203 98.3561 212.766 98.3561 210.993Z" fill="#FAB008" class="svg-elem-13"></path>
        <path d="M73.856 210.993C73.856 209.492 75.0766 208.278 76.5845 208.278C78.0923 208.278 79.313 209.495 79.313 210.993C79.313 212.49 78.0898 213.708 76.5845 213.708C75.0792 213.708 73.856 212.493 73.856 210.993Z" fill="#FAB008" class="svg-elem-14"></path>
        <path d="M49.3583 210.993C49.3583 209.766 50.3584 208.77 51.5919 208.77C52.8253 208.77 53.8254 209.766 53.8254 210.993C53.8254 212.22 52.8253 213.215 51.5919 213.215C50.3584 213.215 49.3583 212.22 49.3583 210.993Z" fill="#FAB008" class="svg-elem-15"></path>
        <path d="M24.858 210.993C24.858 210.039 25.6351 209.265 26.5942 209.265C27.5533 209.265 28.3303 210.039 28.3303 210.993C28.3303 211.947 27.5533 212.72 26.5942 212.72C25.6351 212.72 24.858 211.947 24.858 210.993Z" fill="#FAB008" class="svg-elem-16"></path>
        <path d="M0.357941 210.993C0.357941 210.311 0.911882 209.758 1.59915 209.758C2.28642 209.758 2.84033 210.311 2.84033 210.993C2.84033 211.674 2.28386 212.228 1.59915 212.228C0.914446 212.228 0.357941 211.674 0.357941 210.993Z" fill="#FAB008" class="svg-elem-17"></path>
        <path d="M393.723 187.291C393.723 183.002 397.215 179.527 401.526 179.527C405.837 179.527 409.33 183.002 409.33 187.291C409.33 191.58 405.837 195.056 401.526 195.056C397.215 195.056 393.723 191.58 393.723 187.291Z" fill="#FAB008" class="svg-elem-2"></path>
        <path d="M320.001 187.291C320.001 183.698 322.93 180.787 326.538 180.787C330.146 180.787 333.075 183.698 333.075 187.291C333.075 190.884 330.149 193.795 326.538 193.795C322.927 193.795 320.001 190.884 320.001 187.291Z" fill="#FAB008" class="svg-elem-5"></path>
        <path d="M270.855 187.291C270.855 184.163 273.404 181.627 276.55 181.627C279.697 181.627 282.243 184.163 282.243 187.291C282.243 190.419 279.694 192.956 276.55 192.956C273.407 192.956 270.855 190.419 270.855 187.291Z" fill="#FAB008" class="svg-elem-7"></path>
        <path d="M246.28 187.291C246.28 184.392 248.64 182.045 251.553 182.045C254.466 182.045 256.825 184.392 256.825 187.291C256.825 190.19 254.463 192.537 251.553 192.537C248.642 192.537 246.28 190.187 246.28 187.291Z" fill="#FAB008" class="svg-elem-8"></path>
        <path d="M221.708 187.291C221.708 184.625 223.88 182.466 226.558 182.466C229.235 182.466 231.409 184.627 231.409 187.291C231.409 189.955 229.237 192.119 226.558 192.119C223.878 192.119 221.708 189.957 221.708 187.291Z" fill="#FAB008" class="svg-elem-9"></path>
        <path d="M74.2664 187.291C74.2664 186.015 75.3049 184.982 76.5845 184.982C77.8641 184.982 78.9053 186.015 78.9053 187.291C78.9053 188.567 77.8667 189.6 76.5845 189.6C75.3024 189.6 74.2664 188.567 74.2664 187.291Z" fill="#FAB008" class="svg-elem-15"></path>
        <path d="M49.7196 187.272C49.7063 188.314 50.545 189.17 51.593 189.184C52.6409 189.197 53.5013 188.362 53.5146 187.32C53.528 186.277 52.6893 185.421 51.6413 185.408C50.5934 185.394 49.733 186.229 49.7196 187.272Z" fill="#FAB008" class="svg-elem-16"></path>
        <path d="M25.1195 187.291C25.1195 186.48 25.7812 185.821 26.5966 185.821C27.4121 185.821 28.0737 186.48 28.0737 187.291C28.0737 188.103 27.4121 188.761 26.5966 188.761C25.7812 188.761 25.1195 188.103 25.1195 187.291Z" fill="#FAB008" class="svg-elem-17"></path>
        <path d="M0.544952 187.291C0.544952 186.712 1.01679 186.242 1.59889 186.242C2.181 186.242 2.65283 186.712 2.65283 187.291C2.65283 187.87 2.181 188.34 1.59889 188.34C1.01679 188.34 0.544952 187.87 0.544952 187.291Z" fill="#FAB008" class="svg-elem-18"></path>
        <path d="M345.625 163.796C345.625 160.545 348.274 157.91 351.541 157.91C354.808 157.91 357.457 160.545 357.457 163.796C357.457 167.047 354.808 169.683 351.541 169.683C348.274 169.683 345.625 167.047 345.625 163.796Z" fill="#FAB008" class="svg-elem-5"></path>
        <path d="M296.35 163.796C296.35 160.938 298.679 158.624 301.548 158.624C304.418 158.624 306.746 160.938 306.746 163.796C306.746 166.654 304.42 168.968 301.548 168.968C298.676 168.968 296.35 166.651 296.35 163.796Z" fill="#FAB008" class="svg-elem-7"></path>
        <path d="M271.714 163.796C271.714 161.137 273.881 158.979 276.556 158.979C279.23 158.979 281.397 161.135 281.397 163.796C281.397 166.457 279.23 168.611 276.556 168.611C273.881 168.611 271.714 166.455 271.714 163.796Z" fill="#FAB008" class="svg-elem-8"></path>
        <path d="M247.075 163.796C247.075 161.334 249.083 159.336 251.558 159.336C254.033 159.336 256.038 161.331 256.038 163.796C256.038 166.261 254.033 168.256 251.558 168.256C249.083 168.256 247.075 166.258 247.075 163.796Z" fill="#FAB008" class="svg-elem-9"></path>
        <path d="M173.165 163.796C173.165 161.923 174.69 160.408 176.57 160.408C178.45 160.408 179.976 161.926 179.976 163.796C179.976 165.666 178.45 167.185 176.57 167.185C174.69 167.185 173.165 165.666 173.165 163.796Z" fill="#FAB008" class="svg-elem-12"></path>
        <path d="M123.89 163.796C123.89 162.319 125.095 161.12 126.58 161.12C128.065 161.12 129.267 162.316 129.267 163.796C129.267 165.276 128.065 166.47 126.58 166.47C125.095 166.47 123.89 165.274 123.89 163.796Z" fill="#FAB008" class="svg-elem-14"></path>
        <path d="M49.9788 163.796C49.9788 162.908 50.702 162.191 51.5918 162.191C52.4817 162.191 53.2048 162.911 53.2048 163.796C53.2048 164.681 52.4817 165.401 51.5918 165.401C50.702 165.401 49.9788 164.681 49.9788 163.796Z" fill="#FAB008" class="svg-elem-17"></path>
        <path d="M25.3426 163.796C25.3426 163.107 25.9042 162.549 26.5966 162.549C27.289 162.549 27.8506 163.107 27.8506 163.796C27.8506 164.485 27.289 165.044 26.5966 165.044C25.9042 165.044 25.3426 164.485 25.3426 163.796Z" fill="#FAB008" class="svg-elem-18"></path>
        <path d="M0.703979 163.796C0.703979 163.304 1.10402 162.903 1.6015 162.903C2.09899 162.903 2.49902 163.301 2.49902 163.796C2.49902 164.291 2.09642 164.687 1.6015 164.687C1.10658 164.687 0.703979 164.286 0.703979 163.796Z" fill="#FAB008" class="svg-elem-19"></path>
        <path d="M395.892 140.475C395.892 137.377 398.415 134.866 401.531 134.866C404.647 134.866 407.168 137.377 407.168 140.475C407.168 143.572 404.644 146.083 401.531 146.083C398.418 146.083 395.892 143.572 395.892 140.475Z" fill="#FAB008" class="svg-elem-4"></path>
        <path d="M371.202 140.475C371.202 137.543 373.59 135.167 376.533 135.167C379.477 135.167 381.867 137.543 381.867 140.475C381.867 143.406 379.48 145.779 376.533 145.779C373.587 145.779 371.202 143.404 371.202 140.475Z" fill="#FAB008" class="svg-elem-5"></path>
        <path d="M326.543 135.775C323.934 135.775 321.82 137.879 321.82 140.475C321.82 143.071 323.934 145.175 326.543 145.175C329.152 145.175 331.267 143.071 331.267 140.475C331.267 137.879 329.152 135.775 326.543 135.775Z" fill="#FAB008" class="svg-elem-7"></path>
        <path d="M247.747 140.475C247.747 138.382 249.452 136.686 251.558 136.686C253.663 136.686 255.366 138.382 255.366 140.475C255.366 142.567 253.661 144.264 251.558 144.264C249.455 144.264 247.747 142.567 247.747 140.475Z" fill="#FAB008" class="svg-elem-10"></path>
        <path d="M198.367 140.475C198.367 138.717 199.801 137.29 201.568 137.29C203.335 137.29 204.768 138.717 204.768 140.475C204.768 142.233 203.335 143.659 201.568 143.659C199.801 143.659 198.367 142.233 198.367 140.475Z" fill="#FAB008" class="svg-elem-12"></path>
        <path d="M148.985 140.475C148.985 139.051 150.144 137.898 151.575 137.898C153.006 137.898 154.165 139.051 154.165 140.475C154.165 141.898 153.006 143.052 151.575 143.052C150.144 143.052 148.985 141.898 148.985 140.475Z" fill="#FAB008" class="svg-elem-14"></path>
        <path d="M124.295 140.475C124.295 139.219 125.318 138.201 126.58 138.201C127.842 138.201 128.865 139.219 128.865 140.475C128.865 141.73 127.842 142.748 126.58 142.748C125.318 142.748 124.295 141.73 124.295 140.475Z" fill="#FAB008" class="svg-elem-15"></path>
        <path d="M74.9125 140.475C74.9125 139.554 75.6613 138.806 76.5896 138.806C77.5178 138.806 78.2666 139.554 78.2666 140.475C78.2666 141.396 77.5153 142.144 76.5896 142.144C75.6638 142.144 74.9125 141.396 74.9125 140.475Z" fill="#FAB008" class="svg-elem-17"></path>
        <path d="M50.2224 140.475C50.2224 139.722 50.8353 139.11 51.5943 139.11C52.3534 139.11 52.9663 139.719 52.9663 140.475C52.9663 141.23 52.3534 141.84 51.5943 141.84C50.8353 141.84 50.2224 141.23 50.2224 140.475Z" fill="#FAB008" class="svg-elem-18"></path>
        <path d="M396.739 117.301C396.739 114.668 398.885 112.532 401.531 112.532C404.178 112.532 406.324 114.668 406.324 117.301C406.324 119.935 404.178 122.07 401.531 122.07C398.885 122.07 396.739 119.935 396.739 117.301Z" fill="#FAB008" class="svg-elem-5"></path>
        <path d="M322.533 117.301C322.533 115.094 324.33 113.305 326.548 113.305C328.767 113.305 330.562 115.094 330.562 117.301C330.562 119.508 328.764 121.297 326.548 121.297C324.333 121.297 322.533 119.508 322.533 117.301Z" fill="#FAB008" class="svg-elem-8"></path>
        <path d="M273.063 117.301C273.063 115.38 274.627 113.821 276.558 113.821C278.489 113.821 280.056 115.38 280.056 117.301C280.056 119.223 278.489 120.782 276.558 120.782C274.627 120.782 273.063 119.223 273.063 117.301Z" fill="#FAB008" class="svg-elem-10"></path>
        <path d="M198.857 117.301C198.857 115.806 200.075 114.594 201.578 114.594C203.081 114.594 204.299 115.806 204.299 117.301C204.299 118.796 203.081 120.008 201.578 120.008C200.075 120.008 198.857 118.796 198.857 117.301Z" fill="#FAB008" class="svg-elem-13"></path>
        <path d="M174.124 117.301C174.124 115.949 175.224 114.851 176.586 114.851C177.947 114.851 179.047 115.949 179.047 117.301C179.047 118.653 177.945 119.75 176.586 119.75C175.226 119.75 174.124 118.653 174.124 117.301Z" fill="#FAB008" class="svg-elem-14"></path>
        <path d="M75.1817 117.301C75.1817 116.518 75.8203 115.882 76.6075 115.882C77.3948 115.882 78.0308 116.518 78.0308 117.301C78.0308 118.084 77.3922 118.717 76.6075 118.717C75.8228 118.717 75.1817 118.082 75.1817 117.301Z" fill="#FAB008" class="svg-elem-18"></path>
        <path d="M50.4456 117.301C50.4456 116.661 50.9687 116.14 51.6098 116.14C52.2509 116.14 52.7766 116.661 52.7766 117.301C52.7766 117.941 52.2535 118.462 51.6098 118.462C50.9661 118.462 50.4456 117.941 50.4456 117.301Z" fill="#FAB008" class="svg-elem-19"></path>
        <path d="M25.7119 117.301C25.7119 116.804 26.1171 116.398 26.6198 116.398C27.1224 116.398 27.5276 116.801 27.5276 117.301C27.5276 117.801 27.1224 118.205 26.6198 118.205C26.1171 118.205 25.7119 117.801 25.7119 117.301Z" fill="#FAB008" class="svg-elem-20"></path>
        <path d="M397.459 94.2526C397.459 92.0149 399.282 90.2007 401.531 90.2007C403.78 90.2007 405.604 92.0149 405.604 94.2526C405.604 96.4904 403.78 98.3046 401.531 98.3046C399.282 98.3046 397.459 96.4904 397.459 94.2526Z" fill="#FAB008" class="svg-elem-6"></path>
        <path d="M323.133 94.2528C323.133 92.3773 324.661 90.8566 326.546 90.8566C328.431 90.8566 329.959 92.3773 329.959 94.2528C329.959 96.1282 328.431 97.6489 326.546 97.6489C324.661 97.6489 323.133 96.1282 323.133 94.2528Z" fill="#FAB008" class="svg-elem-9"></path>
        <path d="M298.356 94.2525C298.356 92.497 299.784 91.0758 301.548 91.0758C303.313 91.0758 304.741 92.497 304.741 94.2525C304.741 96.008 303.313 97.4292 301.548 97.4292C299.784 97.4292 298.356 96.008 298.356 94.2525Z" fill="#FAB008" class="svg-elem-10"></path>
        <path d="M273.581 94.2527C273.581 92.6197 274.912 91.2954 276.553 91.2954C278.194 91.2954 279.525 92.6197 279.525 94.2527C279.525 95.8857 278.194 97.21 276.553 97.21C274.912 97.21 273.581 95.8857 273.581 94.2527Z" fill="#FAB008" class="svg-elem-11"></path>
        <path d="M199.255 94.2527C199.255 92.982 200.291 91.9537 201.568 91.9537C202.845 91.9537 203.878 92.9845 203.878 94.2527C203.878 95.5208 202.842 96.5542 201.568 96.5542C200.293 96.5542 199.255 95.5234 199.255 94.2527Z" fill="#FAB008" class="svg-elem-14"></path>
        <path d="M174.48 94.2529C174.48 93.1021 175.416 92.1708 176.57 92.1708C177.724 92.1708 178.663 93.1021 178.663 94.2529C178.663 95.4036 177.727 96.335 176.57 96.335C175.413 96.335 174.48 95.4036 174.48 94.2529Z" fill="#FAB008" class="svg-elem-15"></path>
        <path d="M50.6019 94.2529C50.6019 93.7094 51.0455 93.2679 51.5943 93.2679C52.1431 93.2679 52.5842 93.7094 52.5842 94.2529C52.5842 94.7964 52.1406 95.2378 51.5943 95.2378C51.0481 95.2378 50.6019 94.7964 50.6019 94.2529Z" fill="#FAB008" class="svg-elem-20"></path>
        <path d="M1.0502 94.2527C1.0502 93.9516 1.29638 93.7041 1.60153 93.7041C1.90668 93.7041 2.15283 93.949 2.15283 94.2527C2.15283 94.5563 1.90668 94.8013 1.60153 94.8013C1.29638 94.8013 1.0502 94.5563 1.0502 94.2527Z" fill="#FAB008" class="svg-elem-22"></path>
        <path d="M398.069 71.3141C398.069 69.4107 399.621 67.8695 401.531 67.8695C403.442 67.8695 404.993 69.4107 404.993 71.3141C404.993 73.2176 403.444 74.7588 401.531 74.7588C399.618 74.7588 398.069 73.2176 398.069 71.3141Z" fill="#FAB008" class="svg-elem-7"></path>
        <path d="M298.835 71.3141C298.835 69.8214 300.05 68.6145 301.548 68.6145C303.046 68.6145 304.261 69.824 304.261 71.3141C304.261 72.8042 303.046 74.0137 301.548 74.0137C300.05 74.0137 298.835 72.8042 298.835 71.3141Z" fill="#FAB008" class="svg-elem-11"></path>
        <path d="M274.027 71.3138C274.027 69.9258 275.158 68.8005 276.553 68.8005C277.948 68.8005 279.079 69.9258 279.079 71.3138C279.079 72.7019 277.948 73.8271 276.553 73.8271C275.158 73.8271 274.027 72.7019 274.027 71.3138Z" fill="#FAB008" class="svg-elem-12"></path>
        <path d="M224.411 71.3139C224.411 70.1299 225.376 69.1731 226.563 69.1731C227.75 69.1731 228.714 70.1325 228.714 71.3139C228.714 72.4952 227.75 73.4546 226.563 73.4546C225.376 73.4546 224.411 72.4952 224.411 71.3139Z" fill="#FAB008" class="svg-elem-14"></path>
        <path d="M199.601 71.3141C199.601 70.2347 200.48 69.357 201.565 69.357C202.65 69.357 203.53 70.2322 203.53 71.3141C203.53 72.3959 202.65 73.2686 201.565 73.2686C200.48 73.2686 199.601 72.3934 199.601 71.3141Z" fill="#FAB008" class="svg-elem-15"></path>
        <path d="M174.793 71.3138C174.793 70.3365 175.588 69.543 176.57 69.543C177.552 69.543 178.347 70.3365 178.347 71.3138C178.347 72.291 177.55 73.082 176.57 73.082C175.59 73.082 174.793 72.291 174.793 71.3138Z" fill="#FAB008" class="svg-elem-16"></path>
        <path d="M100.367 71.314C100.367 70.6455 100.91 70.102 101.582 70.102C102.254 70.102 102.8 70.6429 102.8 71.314C102.8 71.9851 102.254 72.5234 101.582 72.5234C100.91 72.5234 100.367 71.9825 100.367 71.314Z" fill="#FAB008" class="svg-elem-19"></path>
        <path d="M75.5585 71.3137C75.5585 70.7473 76.0201 70.288 76.5869 70.288C77.1536 70.288 77.6152 70.7473 77.6152 71.3137C77.6152 71.8802 77.1536 72.3369 76.5869 72.3369C76.0201 72.3369 75.5585 71.8776 75.5585 71.3137Z" fill="#FAB008" class="svg-elem-20"></path>
        <path d="M50.7507 71.314C50.7507 70.8496 51.1277 70.4745 51.5944 70.4745C52.0611 70.4745 52.4355 70.8496 52.4355 71.314C52.4355 71.7784 52.0586 72.1509 51.5944 72.1509C51.1302 72.1509 50.7507 71.7758 50.7507 71.314Z" fill="#FAB008" class="svg-elem-21"></path>
        <path d="M1.13486 71.3139C1.13486 71.0562 1.34517 70.847 1.60162 70.847C1.85808 70.847 2.06836 71.0562 2.06836 71.3139C2.06836 71.5717 1.85808 71.7783 1.60162 71.7783C1.34517 71.7783 1.13486 71.5691 1.13486 71.3139Z" fill="#FAB008" class="svg-elem-23"></path>
        <path d="M398.934 48.1201C398.934 46.6938 400.095 45.5354 401.531 45.5354C402.967 45.5354 404.126 46.6912 404.126 48.1201C404.126 49.549 402.965 50.7023 401.531 50.7023C400.098 50.7023 398.934 49.5464 398.934 48.1201Z" fill="#FAB008" class="svg-elem-8"></path>
        <path d="M374.08 48.12C374.08 46.7702 375.18 45.6756 376.536 45.6756C377.893 45.6756 378.993 46.7702 378.993 48.12C378.993 49.4698 377.893 50.5645 376.536 50.5645C375.18 50.5645 374.08 49.4698 374.08 48.12Z" fill="#FAB008" class="svg-elem-9"></path>
        <path d="M349.223 48.1202C349.223 46.847 350.259 45.8162 351.538 45.8162C352.818 45.8162 353.854 46.847 353.854 48.1202C353.854 49.3935 352.818 50.4243 351.538 50.4243C350.259 50.4243 349.223 49.3935 349.223 48.1202Z" fill="#FAB008" class="svg-elem-10"></path>
        <path d="M274.658 48.1201C274.658 47.079 275.507 46.2345 276.553 46.2345C277.599 46.2345 278.448 47.079 278.448 48.1201C278.448 49.1612 277.599 50.0057 276.553 50.0057C275.507 50.0057 274.658 49.1612 274.658 48.1201Z" fill="#FAB008" class="svg-elem-13"></path>
        <path d="M224.947 48.1202C224.947 47.2322 225.671 46.5152 226.56 46.5152C227.45 46.5152 228.173 47.2348 228.173 48.1202C228.173 49.0056 227.45 49.7251 226.56 49.7251C225.671 49.7251 224.947 49.0056 224.947 48.1202Z" fill="#FAB008" class="svg-elem-15"></path>
        <path d="M200.093 48.1202C200.093 47.3114 200.752 46.653 201.568 46.653C202.383 46.653 203.042 47.3088 203.042 48.1202C203.042 48.9316 202.383 49.5874 201.568 49.5874C200.752 49.5874 200.093 48.9316 200.093 48.1202Z" fill="#FAB008" class="svg-elem-16"></path>
        <path d="M175.239 48.1199C175.239 47.3876 175.837 46.7931 176.573 46.7931C177.309 46.7931 177.906 47.3876 177.906 48.1199C177.906 48.8522 177.309 49.4468 176.573 49.4468C175.837 49.4468 175.239 48.8522 175.239 48.1199Z" fill="#FAB008" class="svg-elem-17"></path>
        <path d="M150.382 48.1201C150.382 47.4644 150.916 46.9336 151.575 46.9336C152.234 46.9336 152.767 47.4644 152.767 48.1201C152.767 48.7759 152.234 49.3066 151.575 49.3066C150.916 49.3066 150.382 48.7759 150.382 48.1201Z" fill="#FAB008" class="svg-elem-18"></path>
        <path d="M100.672 48.1201C100.672 47.62 101.079 47.2117 101.585 47.2117C102.09 47.2117 102.498 47.6174 102.498 48.1201C102.498 48.6227 102.09 49.0284 101.585 49.0284C101.079 49.0284 100.672 48.6227 100.672 48.1201Z" fill="#FAB008" class="svg-elem-20"></path>
        <path d="M75.8176 48.12C75.8176 47.6964 76.1638 47.352 76.5894 47.352C77.0151 47.352 77.3613 47.6964 77.3613 48.12C77.3613 48.5436 77.0151 48.8881 76.5894 48.8881C76.1638 48.8881 75.8176 48.5436 75.8176 48.12Z" fill="#FAB008" class="svg-elem-21"></path>
        <path d="M26.1068 48.1201C26.1068 47.8496 26.3273 47.6302 26.5992 47.6302C26.871 47.6302 27.0916 47.8496 27.0916 48.1201C27.0916 48.3906 26.871 48.61 26.5992 48.61C26.3273 48.61 26.1068 48.3906 26.1068 48.1201Z" fill="#FAB008" class="svg-elem-23"></path>
        <path d="M399.713 25.0132C399.713 24.0155 400.526 23.2041 401.531 23.2041C402.536 23.2041 403.349 24.013 403.349 25.0132C403.349 26.0134 402.536 26.8223 401.531 26.8223C400.526 26.8223 399.713 26.0134 399.713 25.0132Z" fill="#FAB008" class="svg-elem-9"></path>
        <path d="M349.92 25.013C349.92 24.1225 350.646 23.4004 351.541 23.4004C352.436 23.4004 353.162 24.1225 353.162 25.013C353.162 25.9035 352.436 26.6256 351.541 26.6256C350.646 26.6256 349.92 25.9035 349.92 25.013Z" fill="#FAB008" class="svg-elem-11"></path>
        <path d="M325.023 25.0127C325.023 24.1758 325.705 23.4971 326.546 23.4971C327.387 23.4971 328.069 24.1758 328.069 25.0127C328.069 25.8496 327.387 26.5283 326.546 26.5283C325.705 26.5283 325.023 25.8496 325.023 25.0127Z" fill="#FAB008" class="svg-elem-12"></path>
        <path d="M300.125 25.0131C300.125 24.2298 300.763 23.5944 301.548 23.5944C302.333 23.5944 302.971 24.2298 302.971 25.0131C302.971 25.7964 302.333 26.4292 301.548 26.4292C300.763 26.4292 300.125 25.7939 300.125 25.0131Z" fill="#FAB008" class="svg-elem-13"></path>
        <path d="M225.432 25.0155C225.432 24.3955 225.937 23.8902 226.563 23.8902C227.189 23.8902 227.691 24.3929 227.691 25.0155C227.691 25.6381 227.186 26.1382 226.563 26.1382C225.94 26.1382 225.432 25.6355 225.432 25.0155Z" fill="#FAB008" class="svg-elem-16"></path>
        <path d="M150.739 25.0154C150.739 24.5562 151.113 24.1836 151.575 24.1836C152.036 24.1836 152.411 24.5562 152.411 25.0154C152.411 25.4747 152.036 25.8447 151.575 25.8447C151.113 25.8447 150.739 25.4722 150.739 25.0154Z" fill="#FAB008" class="svg-elem-19"></path>
        <path d="M51.1508 25.0157C51.1508 24.7733 51.3482 24.5743 51.5919 24.5743C51.8355 24.5743 52.033 24.7708 52.033 25.0157C52.033 25.2607 51.8355 25.4546 51.5919 25.4546C51.3482 25.4546 51.1508 25.2581 51.1508 25.0157Z" fill="#FAB008" class="svg-elem-80"></path>
        <path d="M400.349 2.04881C400.349 1.40071 400.877 0.872528 401.531 0.872528C402.185 0.872528 402.713 1.39815 402.713 2.04881C402.713 2.69947 402.185 3.2251 401.531 3.2251C400.877 3.2251 400.349 2.69947 400.349 2.04881Z" fill="#FAB008" class="svg-elem-10"></path>
        <path d="M250.761 2.04874C250.761 1.60987 251.117 1.2552 251.561 1.2552C252.004 1.2552 252.358 1.60987 252.358 2.04874C252.358 2.48762 252.002 2.84229 251.561 2.84229C251.12 2.84229 250.761 2.48762 250.761 2.04874Z" fill="#FAB008" class="svg-elem-16"></path>
        <path d="M225.827 2.04846C225.827 1.64531 226.155 1.31871 226.563 1.31871C226.971 1.31871 227.296 1.64531 227.296 2.04846C227.296 2.45161 226.968 2.78076 226.563 2.78076C226.158 2.78076 225.827 2.45416 225.827 2.04846Z" fill="#FAB008" class="svg-elem-17"></path>
        <path d="M200.896 2.04864C200.896 1.6812 201.196 1.38011 201.568 1.38011C201.939 1.38011 202.24 1.67865 202.24 2.04864C202.24 2.41862 201.939 2.71716 201.568 2.71716C201.196 2.71716 200.896 2.41862 200.896 2.04864Z" fill="#FAB008" class="svg-elem-18"></path>
        <path d="M76.2383 2.04887C76.2383 1.85494 76.3947 1.6993 76.5896 1.6993C76.7845 1.6993 76.9409 1.85494 76.9409 2.04887C76.9409 2.24279 76.7845 2.39844 76.5896 2.39844C76.3947 2.39844 76.2383 2.24279 76.2383 2.04887Z" fill="#FAB008" class="svg-elem-19"></path>
        <path d="M392.346 210.993C392.346 205.948 396.456 201.858 401.526 201.858C406.596 201.858 410.707 205.948 410.707 210.993C410.707 216.037 406.596 220.127 401.526 220.127C396.456 220.127 392.346 216.037 392.346 210.993Z" fill="#FF7631" class="svg-elem-1"></path>
        <path d="M367.848 210.993C367.848 206.221 371.736 202.353 376.531 202.353C381.326 202.353 385.214 206.221 385.214 210.993C385.214 215.764 381.326 219.632 376.531 219.632C371.736 219.632 367.848 215.764 367.848 210.993Z" fill="#FF7631" class="svg-elem-2"></path>
        <path d="M343.348 210.993C343.348 206.494 347.015 202.846 351.536 202.846C356.057 202.846 359.724 206.492 359.724 210.993C359.724 215.494 356.06 219.14 351.536 219.14C347.012 219.14 343.348 215.494 343.348 210.993V210.993Z" fill="#FF7631" class="svg-elem-3"></path>
        <path d="M318.848 210.993C318.848 206.765 322.292 203.341 326.538 203.341C330.785 203.341 334.229 206.767 334.229 210.993C334.229 215.218 330.785 218.645 326.538 218.645C322.292 218.645 318.848 215.218 318.848 210.993Z" fill="#FF7631" class="svg-elem-4"></path>
        <path d="M294.35 210.993C294.35 207.038 297.571 203.833 301.546 203.833C305.521 203.833 308.741 207.038 308.741 210.993C308.741 214.948 305.521 218.152 301.546 218.152C297.571 218.152 294.35 214.948 294.35 210.993Z" fill="#FF7631" class="svg-elem-5"></path>
        <path d="M269.85 210.993C269.85 207.311 272.848 204.328 276.548 204.328C280.249 204.328 283.246 207.314 283.246 210.993C283.246 214.672 280.246 217.658 276.548 217.658C272.85 217.658 269.85 214.672 269.85 210.993Z" fill="#FF7631" class="svg-elem-6"></path>
        <path d="M196.352 210.993C196.352 208.13 198.685 205.808 201.563 205.808C204.44 205.808 206.773 208.13 206.773 210.993C206.773 213.856 204.44 216.178 201.563 216.178C198.685 216.178 196.352 213.856 196.352 210.993Z" fill="#FF7631" class="svg-elem-9"></path>
        <path d="M171.854 210.993C171.854 208.403 173.965 206.303 176.568 206.303C179.17 206.303 181.281 208.403 181.281 210.993C181.281 213.583 179.17 215.683 176.568 215.683C173.965 215.683 171.854 213.583 171.854 210.993Z" fill="#FF7631" class="svg-elem-10"></path>
        <path d="M369.151 187.291C369.151 183.234 372.456 179.948 376.534 179.948C380.611 179.948 383.914 183.237 383.914 187.291C383.914 191.346 380.609 194.635 376.534 194.635C372.459 194.635 369.151 191.346 369.151 187.291Z" fill="#FF7631" class="svg-elem-3"></path>
        <path d="M344.576 187.291C344.576 183.466 347.692 180.366 351.536 180.366C355.38 180.366 358.496 183.466 358.496 187.291C358.496 191.116 355.38 194.216 351.536 194.216C347.692 194.216 344.576 191.116 344.576 187.291Z" fill="#FF7631" class="svg-elem-4"></path>
        <path d="M295.43 187.291C295.43 183.931 298.169 181.205 301.546 181.205C304.923 181.205 307.662 183.931 307.662 187.291C307.662 190.651 304.923 193.376 301.546 193.376C298.169 193.376 295.43 190.651 295.43 187.291Z" fill="#FF7631" class="svg-elem-6"></path>
        <path d="M201.506 182.871C199.06 182.903 197.104 184.902 197.136 187.335C197.168 189.769 199.176 191.716 201.622 191.684C204.068 191.652 206.024 189.653 205.992 187.22C205.96 184.786 203.952 182.839 201.506 182.871Z" fill="#FF7631" class="svg-elem-10"></path>
        <path d="M172.562 187.291C172.562 185.089 174.357 183.305 176.568 183.305C178.778 183.305 180.573 185.092 180.573 187.291C180.573 189.491 178.781 191.279 176.568 191.279C174.355 191.279 172.562 189.493 172.562 187.291Z" fill="#FF7631" class="svg-elem-11"></path>
        <path d="M147.987 187.291C147.987 185.321 149.593 183.724 151.572 183.724C153.552 183.724 155.157 185.321 155.157 187.291C155.157 189.261 153.552 190.858 151.572 190.858C149.593 190.858 147.987 189.261 147.987 187.291Z" fill="#FF7631" class="svg-elem-12"></path>
        <path d="M126.556 184.154C124.81 184.165 123.403 185.582 123.414 187.32C123.425 189.057 124.849 190.457 126.595 190.446C128.342 190.435 129.748 189.018 129.737 187.28C129.726 185.543 128.302 184.143 126.556 184.154Z" fill="#FF7631" class="svg-elem-13"></path>
        <path d="M98.8409 187.291C98.8409 185.785 100.069 184.563 101.582 184.563C103.095 184.563 104.323 185.785 104.323 187.291C104.323 188.796 103.095 190.019 101.582 190.019C100.069 190.019 98.8409 188.796 98.8409 187.291Z" fill="#FF7631" class="svg-elem-14"></path>
        <path d="M394.9 163.796C394.9 160.15 397.869 157.198 401.534 157.198C405.199 157.198 408.166 160.152 408.166 163.796C408.166 167.44 405.196 170.395 401.534 170.395C397.872 170.395 394.9 167.44 394.9 163.796V163.796Z" fill="#FF7631" class="svg-elem-3"></path>
        <path d="M370.261 163.796C370.261 160.349 373.069 157.553 376.534 157.553C379.998 157.553 382.809 160.347 382.809 163.796C382.809 167.246 379.998 170.04 376.534 170.04C373.069 170.04 370.261 167.244 370.261 163.796Z" fill="#FF7631" class="svg-elem-4"></path>
        <path d="M320.987 163.796C320.987 160.742 323.474 158.267 326.544 158.267C329.613 158.267 332.101 160.742 332.101 163.796C332.101 166.85 329.613 169.325 326.544 169.325C323.474 169.325 320.987 166.85 320.987 163.796V163.796Z" fill="#FF7631" class="svg-elem-6"></path>
        <path d="M222.439 163.796C222.439 161.53 224.286 159.693 226.563 159.693C228.84 159.693 230.687 161.53 230.687 163.796C230.687 166.062 228.84 167.899 226.563 167.899C224.286 167.899 222.439 166.062 222.439 163.796V163.796Z" fill="#FF7631" class="svg-elem-10"></path>
        <path d="M197.803 163.796C197.803 161.727 199.488 160.051 201.568 160.051C203.648 160.051 205.333 161.727 205.333 163.796C205.333 165.866 203.648 167.542 201.568 167.542C199.488 167.542 197.803 165.866 197.803 163.796Z" fill="#FF7631" class="svg-elem-11"></path>
        <path d="M148.529 163.796C148.529 162.123 149.893 160.765 151.575 160.765C153.257 160.765 154.622 162.123 154.622 163.796C154.622 165.47 153.257 166.828 151.575 166.828C149.893 166.828 148.529 165.47 148.529 163.796Z" fill="#FF7631" class="svg-elem-13"></path>
        <path d="M99.2536 163.796C99.2536 162.515 100.297 161.477 101.585 161.477C102.872 161.477 103.916 162.515 103.916 163.796C103.916 165.077 102.872 166.116 101.585 166.116C100.297 166.116 99.2536 165.077 99.2536 163.796Z" fill="#FF7631" class="svg-elem-15"></path>
        <path d="M74.6177 163.796C74.6177 162.712 75.4999 161.834 76.5897 161.834C77.6796 161.834 78.5618 162.712 78.5618 163.796C78.5618 164.881 77.6796 165.758 76.5897 165.758C75.4999 165.758 74.6177 164.881 74.6177 163.796Z" fill="#FF7631" class="svg-elem-16"></path>
        <path d="M346.512 140.475C346.512 137.711 348.764 135.471 351.541 135.471C354.318 135.471 356.57 137.711 356.57 140.475C356.57 143.238 354.318 145.479 351.541 145.479C348.764 145.479 346.512 143.238 346.512 140.475V140.475Z" fill="#FF7631" class="svg-elem-6"></path>
        <path d="M297.13 140.475C297.13 138.046 299.107 136.078 301.548 136.078C303.99 136.078 305.967 138.046 305.967 140.475C305.967 142.904 303.987 144.871 301.548 144.871C299.11 144.871 297.13 142.904 297.13 140.475Z" fill="#FF7631" class="svg-elem-8"></path>
        <path d="M272.44 140.475C272.44 138.214 274.281 136.382 276.553 136.382C278.825 136.382 280.667 138.214 280.667 140.475C280.667 142.735 278.825 144.567 276.553 144.567C274.281 144.567 272.44 142.735 272.44 140.475Z" fill="#FF7631" class="svg-elem-9"></path>
        <path d="M223.057 140.475C223.057 138.548 224.627 136.987 226.563 136.987C228.499 136.987 230.068 138.548 230.068 140.475C230.068 142.401 228.499 143.963 226.563 143.963C224.627 143.963 223.057 142.401 223.057 140.475Z" fill="#FF7631" class="svg-elem-11"></path>
        <path d="M173.675 140.475C173.675 138.885 174.97 137.594 176.57 137.594C178.17 137.594 179.465 138.882 179.465 140.475C179.465 142.067 178.168 143.355 176.57 143.355C174.973 143.355 173.675 142.064 173.675 140.475Z" fill="#FF7631" class="svg-elem-13"></path>
        <path d="M99.6024 140.475C99.6024 139.385 100.49 138.505 101.585 138.505C102.68 138.505 103.564 139.388 103.564 140.475C103.564 141.561 102.677 142.444 101.585 142.444C100.492 142.444 99.6024 141.561 99.6024 140.475Z" fill="#FF7631" class="svg-elem-16"></path>
        <path d="M25.53 140.475C25.53 139.888 26.007 139.413 26.5968 139.413C27.1866 139.413 27.6636 139.888 27.6636 140.475C27.6636 141.062 27.1866 141.536 26.5968 141.536C26.007 141.536 25.53 141.062 25.53 140.475Z" fill="#FF7631" class="svg-elem-19"></path>
        <path d="M0.839996 140.475C0.839996 140.056 1.18109 139.717 1.60165 139.717C2.02222 139.717 2.36328 140.056 2.36328 140.475C2.36328 140.893 2.02222 141.232 1.60165 141.232C1.18109 141.232 0.839996 140.893 0.839996 140.475Z" fill="#FF7631" class="svg-elem-20"></path>
        <path d="M372.005 117.301C372.005 114.811 374.033 112.79 376.536 112.79C379.039 112.79 381.07 114.811 381.07 117.301C381.07 119.792 379.042 121.812 376.536 121.812C374.031 121.812 372.005 119.792 372.005 117.301V117.301Z" fill="#FF7631" class="svg-elem-6"></path>
        <path d="M347.269 117.301C347.269 114.954 349.182 113.048 351.544 113.048C353.906 113.048 355.819 114.951 355.819 117.301C355.819 119.651 353.906 121.555 351.544 121.555C349.182 121.555 347.269 119.651 347.269 117.301Z" fill="#FF7631" class="svg-elem-7"></path>
        <path d="M297.799 117.301C297.799 115.237 299.481 113.563 301.556 113.563C303.631 113.563 305.31 115.237 305.31 117.301C305.31 119.365 303.628 121.039 301.556 121.039C299.484 121.039 297.799 119.365 297.799 117.301Z" fill="#FF7631" class="svg-elem-9"></path>
        <path d="M248.327 117.301C248.327 115.523 249.776 114.081 251.566 114.081C253.356 114.081 254.802 115.523 254.802 117.301C254.802 119.08 253.353 120.524 251.566 120.524C249.778 120.524 248.327 119.082 248.327 117.301Z" fill="#FF7631" class="svg-elem-11"></path>
        <path d="M223.593 117.301C223.593 115.663 224.927 114.336 226.573 114.336C228.22 114.336 229.551 115.663 229.551 117.301C229.551 118.939 228.217 120.266 226.573 120.266C224.929 120.266 223.593 118.939 223.593 117.301Z" fill="#FF7631" class="svg-elem-12"></path>
        <path d="M149.387 117.301C149.387 116.092 150.375 115.11 151.59 115.11C152.806 115.11 153.791 116.089 153.791 117.301C153.791 118.513 152.806 119.493 151.59 119.493C150.375 119.493 149.387 118.513 149.387 117.301Z" fill="#FF7631" class="svg-elem-15"></path>
        <path d="M124.651 117.301C124.651 116.235 125.521 115.367 126.595 115.367C127.67 115.367 128.539 116.232 128.539 117.301C128.539 118.37 127.67 119.235 126.595 119.235C125.521 119.235 124.651 118.37 124.651 117.301Z" fill="#FF7631" class="svg-elem-16"></path>
        <path d="M99.9153 117.301C99.9153 116.375 100.669 115.625 101.6 115.625C102.531 115.625 103.285 116.375 103.285 117.301C103.285 118.227 102.531 118.975 101.6 118.975C100.669 118.975 99.9153 118.225 99.9153 117.301Z" fill="#FF7631" class="svg-elem-17"></path>
        <path d="M0.975739 117.301C0.975739 116.947 1.26555 116.656 1.62459 116.656C1.98363 116.656 2.27344 116.944 2.27344 117.301C2.27344 117.659 1.98363 117.944 1.62459 117.944C1.26555 117.944 0.975739 117.656 0.975739 117.301Z" fill="#FF7631" class="svg-elem-21"></path>
        <path d="M372.682 94.2529C372.682 92.135 374.408 90.4204 376.536 90.4204C378.665 90.4204 380.391 92.1376 380.391 94.2529C380.391 96.3681 378.665 98.0879 376.536 98.0879C374.408 98.0879 372.682 96.3707 372.682 94.2529Z" fill="#FF7631" class="svg-elem-7"></path>
        <path d="M347.907 94.2526C347.907 92.2572 349.533 90.637 351.541 90.637C353.549 90.637 355.175 92.2547 355.175 94.2526C355.175 96.2505 353.549 97.8682 351.541 97.8682C349.533 97.8682 347.907 96.2505 347.907 94.2526Z" fill="#FF7631" class="svg-elem-8"></path>
        <path d="M248.806 94.2529C248.806 92.7398 250.037 91.5151 251.558 91.5151C253.079 91.5151 254.31 92.7424 254.31 94.2529C254.31 95.7634 253.079 96.9907 251.558 96.9907C250.037 96.9907 248.806 95.7634 248.806 94.2529Z" fill="#FF7631" class="svg-elem-12"></path>
        <path d="M224.029 94.2526C224.029 92.862 225.163 91.7342 226.563 91.7342C227.963 91.7342 229.094 92.862 229.094 94.2526C229.094 95.6432 227.961 96.771 226.563 96.771C225.165 96.771 224.029 95.6432 224.029 94.2526Z" fill="#FF7631" class="svg-elem-13"></path>
        <path d="M149.706 94.2526C149.706 93.2243 150.544 92.3899 151.578 92.3899C152.611 92.3899 153.45 93.2243 153.45 94.2526C153.45 95.2809 152.611 96.1152 151.578 96.1152C150.544 96.1152 149.706 95.2809 149.706 94.2526Z" fill="#FF7631" class="svg-elem-16"></path>
        <path d="M124.928 94.2528C124.928 93.3444 125.667 92.6095 126.58 92.6095C127.493 92.6095 128.231 93.3444 128.231 94.2528C128.231 95.1611 127.493 95.896 126.58 95.896C125.667 95.896 124.928 95.1611 124.928 94.2528Z" fill="#FF7631" class="svg-elem-17"></path>
        <path d="M100.154 94.2525C100.154 93.4666 100.795 92.8287 101.585 92.8287C102.375 92.8287 103.016 93.4666 103.016 94.2525C103.016 95.0384 102.375 95.6763 101.585 95.6763C100.795 95.6763 100.154 95.0384 100.154 94.2525Z" fill="#FF7631" class="svg-elem-18"></path>
        <path d="M75.3766 94.2527C75.3766 93.5867 75.9202 93.0483 76.5869 93.0483C77.2537 93.0483 77.7974 93.5867 77.7974 94.2527C77.7974 94.9186 77.2563 95.457 76.5869 95.457C75.9176 95.457 75.3766 94.9186 75.3766 94.2527Z" fill="#FF7631" class="svg-elem-19"></path>
        <path d="M25.8276 94.2526C25.8276 93.829 26.1712 93.4846 26.5969 93.4846C27.0226 93.4846 27.3662 93.829 27.3662 94.2526C27.3662 94.6762 27.0226 95.0181 26.5969 95.0181C26.1712 95.0181 25.8276 94.6736 25.8276 94.2526Z" fill="#FF7631" class="svg-elem-20"></path>
        <path d="M373.259 71.3139C373.259 69.515 374.726 68.0555 376.534 68.0555C378.342 68.0555 379.808 69.515 379.808 71.3139C379.808 73.1128 378.342 74.5723 376.534 74.5723C374.726 74.5723 373.259 73.1128 373.259 71.3139Z" fill="#FF7631" class="svg-elem-8"></path>
        <path d="M348.451 71.3141C348.451 69.6173 349.833 68.242 351.538 68.242C353.244 68.242 354.626 69.6173 354.626 71.3141C354.626 73.0109 353.244 74.3862 351.538 74.3862C349.833 74.3862 348.451 73.0109 348.451 71.3141Z" fill="#FF7631" class="svg-elem-9"></path>
        <path d="M323.643 71.3139C323.643 69.7191 324.941 68.428 326.544 68.428C328.146 68.428 329.444 69.7191 329.444 71.3139C329.444 72.9086 328.146 74.1997 326.544 74.1997C324.941 74.1997 323.643 72.9086 323.643 71.3139Z" fill="#FF7631" class="svg-elem-10"></path>
        <path d="M249.219 71.3139C249.219 70.028 250.268 68.9869 251.558 68.9869C252.848 68.9869 253.897 70.028 253.897 71.3139C253.897 72.5999 252.848 73.641 251.558 73.641C250.268 73.641 249.219 72.5999 249.219 71.3139Z" fill="#FF7631" class="svg-elem-13"></path>
        <path d="M149.985 71.314C149.985 70.4388 150.698 69.7295 151.575 69.7295C152.452 69.7295 153.165 70.4388 153.165 71.314C153.165 72.1892 152.452 72.896 151.575 72.896C150.698 72.896 149.985 72.1867 149.985 71.314Z" fill="#FF7631" class="svg-elem-17"></path>
        <path d="M125.175 71.3138C125.175 70.5432 125.803 69.9155 126.58 69.9155C127.357 69.9155 127.983 70.5406 127.983 71.3138C127.983 72.0869 127.354 72.7095 126.58 72.7095C125.806 72.7095 125.175 72.0843 125.175 71.3138Z" fill="#FF7631" class="svg-elem-18"></path>
        <path d="M25.9429 71.3142C25.9429 70.9544 26.2352 70.6609 26.5968 70.6609C26.9584 70.6609 27.2507 70.9519 27.2507 71.3142C27.2507 71.6765 26.9558 71.9648 26.5968 71.9648C26.2378 71.9648 25.9429 71.674 25.9429 71.3142Z" fill="#FF7631" class="svg-elem-19"></path>
        <path d="M324.369 48.1199C324.369 46.9232 325.343 45.9561 326.543 45.9561C327.744 45.9561 328.718 46.9258 328.718 48.1199C328.718 49.3141 327.744 50.2837 326.543 50.2837C325.343 50.2837 324.369 49.3141 324.369 48.1199Z" fill="#FF7631" class="svg-elem-11"></path>
        <path d="M299.515 48.12C299.515 47.0024 300.425 46.0941 301.551 46.0941C302.677 46.0941 303.587 46.9999 303.587 48.12C303.587 49.2402 302.677 50.146 301.551 50.146C300.425 50.146 299.515 49.2402 299.515 48.12Z" fill="#FF7631" class="svg-elem-12"></path>
        <path d="M249.804 48.12C249.804 47.1555 250.589 46.3747 251.558 46.3747C252.527 46.3747 253.312 47.1555 253.312 48.12C253.312 49.0845 252.527 49.8652 251.558 49.8652C250.589 49.8652 249.804 49.0845 249.804 48.12Z" fill="#FF7631" class="svg-elem-14"></path>
        <path d="M125.526 48.1199C125.526 47.5407 125.998 47.0712 126.58 47.0712C127.162 47.0712 127.631 47.5407 127.631 48.1199C127.631 48.6991 127.16 49.166 126.58 49.166C126 49.166 125.526 48.6965 125.526 48.1199Z" fill="#FF7631" class="svg-elem-19"></path>
        <path d="M50.9612 48.1199C50.9612 47.7729 51.2433 47.4922 51.592 47.4922C51.9408 47.4922 52.2229 47.7729 52.2229 48.1199C52.2229 48.4669 51.9408 48.7476 51.592 48.7476C51.2433 48.7476 50.9612 48.4669 50.9612 48.1199Z" fill="#FF7631" class="svg-elem-22"></path>
        <path d="M1.25046 48.1202C1.25046 47.9263 1.40689 47.7706 1.60179 47.7706C1.79669 47.7706 1.95312 47.9263 1.95312 48.1202C1.95312 48.3141 1.79669 48.4697 1.60179 48.4697C1.40689 48.4697 1.25046 48.3141 1.25046 48.1202Z" fill="#FF7631" class="svg-elem-148"></path>
        <path d="M374.816 25.013C374.816 24.0689 375.585 23.3008 376.534 23.3008C377.483 23.3008 378.254 24.0663 378.254 25.013C378.254 25.9596 377.485 26.7251 376.534 26.7251C375.582 26.7251 374.816 25.9596 374.816 25.013Z" fill="#FF7631" class="svg-elem-10"></path>
        <path d="M275.227 25.0153C275.227 24.2856 275.822 23.6962 276.553 23.6962C277.284 23.6962 277.879 24.2881 277.879 25.0153C277.879 25.7425 277.287 26.3345 276.553 26.3345C275.82 26.3345 275.227 25.7425 275.227 25.0153Z" fill="#FF7631" class="svg-elem-14"></path>
        <path d="M250.33 25.0155C250.33 24.3393 250.878 23.7933 251.558 23.7933C252.238 23.7933 252.786 24.3393 252.786 25.0155C252.786 25.6916 252.238 26.2377 251.558 26.2377C250.878 26.2377 250.33 25.6916 250.33 25.0155Z" fill="#FF7631" class="svg-elem-15"></path>
        <path d="M200.534 25.0153C200.534 24.4488 200.996 23.9895 201.565 23.9895C202.135 23.9895 202.596 24.4488 202.596 25.0153C202.596 25.5817 202.135 26.041 201.565 26.041C200.996 26.041 200.534 25.5817 200.534 25.0153Z" fill="#FF7631" class="svg-elem-17"></path>
        <path d="M175.637 25.0156C175.637 24.5027 176.055 24.0868 176.57 24.0868C177.085 24.0868 177.503 24.5027 177.503 25.0156C177.503 25.5284 177.085 25.9443 176.57 25.9443C176.055 25.9443 175.637 25.5284 175.637 25.0156Z" fill="#FF7631" class="svg-elem-18"></path>
        <path d="M125.844 25.0157C125.844 24.61 126.175 24.2809 126.582 24.2809C126.99 24.2809 127.318 24.61 127.318 25.0157C127.318 25.4214 126.988 25.748 126.582 25.748C126.177 25.748 125.844 25.4189 125.844 25.0157Z" fill="#FF7631" class="svg-elem-20"></path>
        <path d="M100.946 25.0155C100.946 24.6634 101.234 24.3802 101.585 24.3802C101.936 24.3802 102.223 24.666 102.223 25.0155C102.223 25.3651 101.936 25.6509 101.585 25.6509C101.234 25.6509 100.946 25.3677 100.946 25.0155Z" fill="#FF7631" class="svg-elem-155"></path>
        <path d="M76.0485 25.0153C76.0485 24.7168 76.2896 24.477 76.5896 24.477C76.8896 24.477 77.1306 24.7168 77.1306 25.0153C77.1306 25.3139 76.8896 25.5537 76.5896 25.5537C76.2896 25.5537 76.0485 25.3139 76.0485 25.0153Z" fill="#FF7631" class="svg-elem-22"></path>
        <path d="M26.2532 25.0155C26.2532 24.8267 26.407 24.6736 26.5968 24.6736C26.7866 24.6736 26.9404 24.8267 26.9404 25.0155C26.9404 25.2043 26.7866 25.3574 26.5968 25.3574C26.407 25.3574 26.2532 25.2043 26.2532 25.0155Z" fill="#FF7631" class="svg-elem-157"></path>
        <path d="M1.35544 25.0153C1.35544 24.8801 1.46572 24.7704 1.60163 24.7704C1.73753 24.7704 1.84521 24.8801 1.84521 25.0153C1.84521 25.1506 1.73497 25.2603 1.60163 25.2603C1.46829 25.2603 1.35544 25.1506 1.35544 25.0153Z" fill="#FF7631" class="svg-elem-158"></path>
        <path d="M376.536 0.936157C375.919 0.936157 375.418 1.43423 375.418 2.04865C375.418 2.66306 375.919 3.16113 376.536 3.16113C377.154 3.16113 377.654 2.66306 377.654 2.04865C377.654 1.43423 377.154 0.936157 376.536 0.936157Z" fill="#FF7631" class="svg-elem-11"></path>
        <path d="M350.487 2.04894C350.487 1.46972 350.959 1.00023 351.541 1.00023C352.123 1.00023 352.595 1.46972 352.595 2.04894C352.595 2.62816 352.123 3.09766 351.541 3.09766C350.959 3.09766 350.487 2.62816 350.487 2.04894Z" fill="#FF7631" class="svg-elem-12"></path>
        <path d="M325.553 2.04864C325.553 1.50515 325.997 1.06372 326.543 1.06372C327.09 1.06372 327.533 1.50515 327.533 2.04864C327.533 2.59214 327.09 3.03357 326.543 3.03357C325.997 3.03357 325.553 2.59214 325.553 2.04864Z" fill="#FF7631" class="svg-elem-13"></path>
        <path d="M300.623 2.04856C300.623 1.54077 301.038 1.1274 301.548 1.1274C302.059 1.1274 302.474 1.54077 302.474 2.04856C302.474 2.55635 302.059 2.96973 301.548 2.96973C301.038 2.96973 300.623 2.55635 300.623 2.04856Z" fill="#FF7631" class="svg-elem-14"></path>
        <path d="M275.692 2.0489C275.692 1.5743 276.076 1.19156 276.553 1.19156C277.03 1.19156 277.415 1.5743 277.415 2.0489C277.415 2.52351 277.03 2.90625 276.553 2.90625C276.076 2.90625 275.692 2.52351 275.692 2.0489Z" fill="#FF7631" class="svg-elem-15"></path>
        <path d="M175.965 2.04872C175.965 1.71446 176.237 1.444 176.573 1.444C176.909 1.444 177.18 1.71446 177.18 2.04872C177.18 2.38297 176.909 2.65088 176.573 2.65088C176.237 2.65088 175.965 2.38042 175.965 2.04872Z" fill="#FF7631" class="svg-elem-19"></path>
        <path d="M151.031 2.04892C151.031 1.75039 151.275 1.508 151.575 1.508C151.875 1.508 152.119 1.75039 152.119 2.04892C152.119 2.34745 151.875 2.58984 151.575 2.58984C151.275 2.58984 151.031 2.34745 151.031 2.04892Z" fill="#FF7631" class="svg-elem-20"></path>
        <path d="M126.1 2.04873C126.1 1.78591 126.316 1.57158 126.58 1.57158C126.844 1.57158 127.059 1.78591 127.059 2.04873C127.059 2.31154 126.844 2.52588 126.58 2.52588C126.316 2.52588 126.1 2.31154 126.1 2.04873Z" fill="#FF7631" class="svg-elem-166"></path>
        <path d="M101.169 2.04857C101.169 1.82148 101.354 1.63522 101.585 1.63522C101.816 1.63522 102 1.81893 102 2.04857C102 2.27821 101.813 2.46191 101.585 2.46191C101.357 2.46191 101.169 2.27821 101.169 2.04857Z" fill="#FF7631" class="svg-elem-22"></path>
        <path d="M51.3047 2.0487C51.3047 1.8905 51.4329 1.76292 51.5919 1.76292C51.7509 1.76292 51.8792 1.8905 51.8792 2.0487C51.8792 2.2069 51.7509 2.33447 51.5919 2.33447C51.4329 2.33447 51.3047 2.2069 51.3047 2.0487Z" fill="#FF7631" class="svg-elem-24"></path>
        <path d="M26.3736 2.04852C26.3736 1.92605 26.4736 1.82654 26.5967 1.82654C26.7198 1.82654 26.8198 1.92605 26.8198 2.04852C26.8198 2.171 26.7198 2.27051 26.5967 2.27051C26.4736 2.27051 26.3736 2.171 26.3736 2.04852Z" fill="#FF7631" class="svg-elem-25"></path>
        <path d="M1.44278 2.04884C1.44278 1.96209 1.51458 1.89066 1.60176 1.89066C1.68894 1.89066 1.76074 1.96209 1.76074 2.04884C1.76074 2.13559 1.68894 2.20703 1.60176 2.20703C1.51458 2.20703 1.44278 2.13559 1.44278 2.04884Z" fill="#FF7631" class="svg-elem-26"></path>
    </g>
    <defs>
        <clipPath id="clip0_1077_17572">
            <rect width="410.349" height="219.255" fill="white" transform="translate(410.707 220.127) rotate(-180)" class="svg-elem-171"></rect>
        </clipPath>
    </defs>
</svg>